<svg xmlns="http://www.w3.org/2000/svg" viewBox="0 0 166 161" fill="none"><path d="M 77.13698200305942,44.68822405078154 C 72.0071638467711,46.337094172445646 67.42696906437081,50.07453311488428 65.15519245230027,54.43487854772937 C 63.02998207326652,58.50209151450083 62.22386779156408,63.81511746208517 63.35975609759935,66.4533096567477 C 64.82541842796743,69.89761613311272 68.78270671996131,71.28999534696241 72.26365475458553,69.60448366703912 C 74.24229890058245,68.65180315229985 75.52475343965455,66.56323433152532 75.89116902224654,63.778475903825964 C 76.18430148832019,61.396774616977815 76.697283303949,60.297527869201744 78.12630407605789,58.94179021361124 C 80.76449627072046,56.45016425198548 84.97827547052873,56.5967304850223 87.46990143215447,59.234922679684864 C 90.21801830159464,62.202888898680264 89.70503648596582,67.25942393845017 86.3706546843784,69.45791743400233 C 85.52789884441674,70.00754080789036 84.09887807230785,70.48388106526 82.52329106716218,70.7037304148152 C 79.51868328990759,71.14342911392562 77.75988849346587,72.3159589782201 76.7339248622082,74.55109403203144 C 76.14765993006097,75.83354857110352 76.03773525528337,76.9694368771388 76.03773525528337,81.91604724213111 C 76.03773525528337,88.25503682097312 76.40415083787539,89.79398226785962 78.27287030909471,91.51613550604212 C 78.74921056646434,91.91919264689335 90.03481051029866,99.65056143958503 103.33569615838908,108.66438477134882 C 116.63658180647954,117.71484966137179 131.25656355190125,127.60807039135643 135.83675833430158,130.72260284338861 C 140.41695311670188,133.80049373716162 144.26431673391812,136.6585352813794 144.3742414086957,137.0615924222306 C 144.63073231651012,137.9043482621923 144.0444673843629,139.11351968474594 143.0917868696236,139.6265015003748 C 142.65208817051317,139.88299240818918 122.68243891924791,139.9929170829668 82.63321574193978,139.9929170829668 L 22.87083422118078,139.9929170829668 L 21.95479526470072,139.07687812648675 C 21.40517189081269,138.5272547525987 21.07539786647986,137.83106514567385 21.14868098299827,137.35472488830425 C 21.221964099516676,136.76845995615702 28.000652377469102,132.0050573824607 47.38403669658714,118.88737952566626 C 61.74752753419444,109.17736658697764 73.83924175973121,100.93301597865712 74.27894045884165,100.5666003960651 C 75.96445213876495,99.06429650743779 76.5873586291714,95.21693289022154 75.52475343965452,93.16500562770622 C 74.13237422580482,90.52681343304366 70.76135086595824,88.91458486963874 68.04987555477726,89.6474160348228 C 66.36436387485395,90.08711473393322 15.029540753711473,124.75002884713864 12.537914792085722,127.13173013398678 C 9.056966757461502,130.429470377315 7.371455077538194,135.5959300918625 8.214210917499848,140.21276643252202 C 9.056966757461499,144.7563196566631 11.658517393864866,148.75024950691613 15.249390103266695,150.8754598859499 C 19.353244628297357,153.33044428931646 15.212748545007496,153.18387805627964 82.9996313245318,153.18387805627964 C 150.7865141040561,153.18387805627964 146.64601802076626,153.33044428931646 150.7498725457969,150.8754598859499 C 154.34074525519873,148.75024950691613 156.9422958916021,144.7563196566631 157.78505173156375,140.21276643252202 C 158.6278075715254,135.70585476664013 156.9422958916021,130.5393950520926 153.6079140900147,127.2416548087644 C 152.76515825005305,126.39889896880274 138.07189338811293,116.2491873310037 120.9236441228062,104.63381336283656 C 103.81203641575871,93.01843939466943 89.74167804422501,83.41835113075842 89.66839492770663,83.23514333946238 C 89.63175336944741,83.08857710642557 90.6943585589643,82.39238749950073 92.05009621455477,81.6961978925759 C 96.99670657954707,79.20457193095014 101.28376889587375,73.59841351729217 102.38301564364986,68.24874601144865 C 104.54486758094276,57.769260349316774 98.4623689099152,47.65619026977694 88.16609103907933,44.57829937600393 C 85.41797416963917,43.772185094301484 79.77517419772201,43.808826652560676 77.13698200305944,44.68822405078154 M 87.8363170147465,48.38902143496099 C 97.28983904562071,51.28370453743796 101.9066753862802,62.01968110738425 97.61961306995354,71.033504439148 C 95.78753515699341,74.84422649810504 91.97681309803639,78.17860829969246 88.12944948082011,79.35113816398695 C 86.4439378008968,79.86411997961577 85.93095598526799,80.59695114479982 85.93095598526799,82.64887840731517 C 85.93095598526799,83.96797450464646 86.15080533482319,84.81073034460809 86.59050403393363,85.32371216023694 C 86.92027805826643,85.72676930108817 101.13720266283696,95.47342379803598 118.17552725336603,107.0155146496847 C 135.2138518438951,118.55760550133344 149.90711670583525,128.7439586973917 150.8597972205745,129.65999765387173 C 153.24149850742265,131.9684158242015 154.23082058042112,134.35011711104966 154.26746213868032,137.79442358741466 C 154.26746213868032,142.52118460285175 151.84911929357295,146.36854822006802 147.5254154189871,148.3838339243241 L 145.47348815647177,149.33651443906342 L 82.9996313245318,149.33651443906342 L 20.52577449259183,149.33651443906342 L 18.4738472300765,148.3838339243241 C 15.872296593673138,147.13802094351126 13.89365244767621,145.1960183557735 12.684481025122533,142.5944677193702 C 11.915008301679283,140.90895603944688 11.731800510383273,140.029558641226 11.73180051038327,137.61121579611864 C 11.768442068642472,134.13026776149445 12.647839466863328,131.9684158242015 14.992899195452278,129.73328077039014 C 15.79901347715473,128.9271664886877 28.22050172702432,120.35304185603435 42.583992564631636,110.67967047560494 C 70.17508593381098,92.06575887993016 69.99187814251499,92.17568355470776 71.64074826417908,93.82455367637188 C 72.59342877891834,94.77723419111115 72.63007033717753,97.1589354779593 71.75067293895668,97.92840820140253 C 71.38425735636466,98.25818222573534 59.32918468908709,106.46589127579668 44.92905229322058,116.2125457727445 C 20.049434235222197,133.06766257197756 18.73033813789091,133.98370152845763 18.070790089225277,135.52264697534412 C 16.934901783190007,138.08755605348824 17.924223856188465,141.01888071422445 20.415849817814223,142.557826161111 C 21.6250212403679,143.29065732629505 22.39449396381115,143.29065732629505 82.9996313245318,143.290657326295 C 143.60476868525242,143.290657326295 144.3742414086957,143.290657326295 145.58341283124938,142.557826161111 C 147.30556606943188,141.4952209715941 148.22160502591194,139.7730677334116 148.22160502591194,137.61121579611864 C 148.22160502591194,134.20355087801283 152.76515825005302,137.53793267960026 93.7722494527373,97.78184196836573 C 86.66378715045204,93.01843939466943 80.76449627072046,89.17107577745318 80.65457159594285,89.28100045223077 C 80.54464692116525,89.35428356874917 80.50800536290606,89.31764201048998 80.61793003768364,89.17107577745318 C 80.72785471246127,89.02450954441638 80.43472224638762,88.69473552008355 79.99502354727721,88.43824461226913 C 79.51868328990759,88.18175370445472 79.37211705687076,87.99854591315871 79.62860796468519,87.9619043548995 C 79.95838198901802,87.9619043548995 80.06830666379562,86.56952514104981 80.06830666379562,82.24582126646392 L 80.06830666379562,76.52973817802835 L 81.09427029505329,75.54041610502989 C 81.82710146023734,74.77094338158663 82.59657418368059,74.47781091551303 84.06223651404869,74.29460312421703 C 89.41190401989223,73.6716966338106 93.11270140407166,69.86097457485354 93.55240010318207,64.65787330204681 C 94.0287403605517,58.50209151450081 89.4119040198922,53.51883959124931 83.18283911582782,53.51883959124931 C 81.2774780863493,53.51883959124931 80.141589780314,53.738688940804536 78.78585212472353,54.398236989470156 C 75.3781872066177,55.97382399461586 72.73999501195513,59.96775384486891 72.73999501195516,63.48534343775234 C 72.73999501195516,65.28077979245325 71.45754047288307,66.70980056456216 69.80867035121895,66.70980056456216 C 67.2437612730748,66.70980056456216 66.43764699137233,65.28077979245327 66.95062880700118,61.57998240827382 C 68.26972490433246,51.76004479480759 78.3095118673539,45.42105521596559 87.83631701474653,48.38902143496098" fill="currentColor"/><path d="M125.0 32.0 C127.0 43.0 132.0 48.0 140.0 50.0 C132.0 52.0 127.0 57.0 125.0 68.0 C123.0 57.0 118.0 52.0 110.0 50.0 C118.0 48.0 123.0 43.0 125.0 32.0 Z" fill="currentColor"/></svg>